HIERARCHY
ROOT Hips
{
	OFFSET 0.000000 0.000000 0.000000
	CHANNELS 6 Xposition Yposition Zposition Zrotation Yrotation Xrotation 
	JOINT LHipJoint
	{
		OFFSET 0.000000 0.000000 0.000000
		CHANNELS 3 Zrotation Yrotation Xrotation
		JOINT LeftUpLeg
		{
			OFFSET 1.363060 -1.794630 0.839290
			CHANNELS 3 Zrotation Yrotation Xrotation
			JOINT LeftLeg
			{
				OFFSET 2.448110 -6.726130 0.000000
				CHANNELS 3 Zrotation Yrotation Xrotation
				JOINT LeftFoot
				{
					OFFSET 2.562200 -7.039590 0.000000
					CHANNELS 3 Zrotation Yrotation Xrotation
					JOINT LeftToeBase
					{
						OFFSET 0.157640 -0.433110 2.322550
						CHANNELS 3 Zrotation Yrotation Xrotation
						End Site
						{
							OFFSET 0.000000 0.000000 0.000000
						}
					}
				}
			}
		}
	}
	JOINT RHipJoint
	{
		OFFSET 0.000000 0.000000 0.000000
		CHANNELS 3 Zrotation Yrotation Xrotation
		JOINT RightUpLeg
		{
			OFFSET -1.305520 -1.794630 0.839290
			CHANNELS 3 Zrotation Yrotation Xrotation
			JOINT RightLeg
			{
				OFFSET -2.542530 -6.985550 0.000000
				CHANNELS 3 Zrotation Yrotation Xrotation
				JOINT RightFoot
				{
					OFFSET -2.568260 -7.056230 0.000000
					CHANNELS 3 Zrotation Yrotation Xrotation
					JOINT RightToeBase
					{
						OFFSET -0.164730 -0.452590 2.363150
						CHANNELS 3 Zrotation Yrotation Xrotation
						End Site
						{
							OFFSET 0.000000 0.000000 0.000000
						}
					}
				}
			}
		}
	}
	JOINT LowerBack
	{
		OFFSET 0.000000 0.000000 0.000000
		CHANNELS 3 Zrotation Yrotation Xrotation
		JOINT Spine
		{
			OFFSET 0.028270 2.035590 -0.193380
			CHANNELS 3 Zrotation Yrotation Xrotation
			JOINT Spine1
			{
				OFFSET 0.056720 2.048850 -0.042750
				CHANNELS 3 Zrotation Yrotation Xrotation
				JOINT Neck
				{
					OFFSET 0.000000 0.000000 0.000000
					CHANNELS 3 Zrotation Yrotation Xrotation
					JOINT Neck1
					{
						OFFSET -0.054170 1.746240 0.172020
						CHANNELS 3 Zrotation Yrotation Xrotation
						JOINT Head
						{
							OFFSET 0.104070 1.761360 -0.123970
							CHANNELS 3 Zrotation Yrotation Xrotation
							End Site
							{
								OFFSET 0.000000 0.000000 0.000000
							}
						}
					}
				}
				JOINT LeftShoulder
				{
					OFFSET 0.000000 0.000000 0.000000
					CHANNELS 3 Zrotation Yrotation Xrotation
					JOINT LeftArm
					{
						OFFSET 3.362410 1.200890 -0.311210
						CHANNELS 3 Zrotation Yrotation Xrotation
						JOINT LeftForeArm
						{
							OFFSET 4.983000 -0.000000 -0.000000
							CHANNELS 3 Zrotation Yrotation Xrotation
							JOINT LeftHand
							{
								OFFSET 3.483560 -0.000000 -0.000000
								CHANNELS 3 Zrotation Yrotation Xrotation
								JOINT LeftFingerBase
								{
									OFFSET 0.000000 0.000000 0.000000
									CHANNELS 3 Zrotation Yrotation Xrotation
									JOINT LeftHandIndex1
									{
										OFFSET 0.715260 -0.000000 -0.000000
										CHANNELS 3 Zrotation Yrotation Xrotation
										End Site
										{
											OFFSET 0.000000 0.000000 0.000000
										}
									}
								}
								JOINT LThumb
								{
									OFFSET 0.000000 0.000000 0.000000
									CHANNELS 3 Zrotation Yrotation Xrotation
									End Site
									{
										OFFSET 0.000000 0.000000 0.000000
									}
								}
							}
						}
					}
				}
				JOINT RightShoulder
				{
					OFFSET 0.000000 0.000000 0.000000
					CHANNELS 3 Zrotation Yrotation Xrotation
					JOINT RightArm
					{
						OFFSET -3.136600 1.374050 -0.404650
						CHANNELS 3 Zrotation Yrotation Xrotation
						JOINT RightForeArm
						{
							OFFSET -5.241900 -0.000000 -0.000000
							CHANNELS 3 Zrotation Yrotation Xrotation
							JOINT RightHand
							{
								OFFSET -3.444170 -0.000000 -0.000000
								CHANNELS 3 Zrotation Yrotation Xrotation
								JOINT RightFingerBase
								{
									OFFSET 0.000000 0.000000 0.000000
									CHANNELS 3 Zrotation Yrotation Xrotation
									JOINT RightHandIndex1
									{
										OFFSET -0.622530 -0.000000 -0.000000
										CHANNELS 3 Zrotation Yrotation Xrotation
										End Site
										{
											OFFSET 0.000000 0.000000 0.000000
										}
									}
								}
								JOINT RThumb
								{
									OFFSET 0.000000 0.000000 0.000000
									CHANNELS 3 Zrotation Yrotation Xrotation
									End Site
									{
										OFFSET 0.000000 0.000000 0.000000
									}
								}
							}
						}
					}
				}
			}
		}
	}
}
MOTION
Frames: 6
Frame Time: 0.008333
17.383647 18.886512 34.053547 0.220663 1.389631 11.002435 -17.832744 3.381982 3.855657 2.760006 -1.695851 -20.629608 -1.316632 -16.555626 22.110209 -16.708077 23.799473 0.149732 -0.257049 -1.095388 -0.856253 14.637063 -2.663382 4.472603 -6.342926 5.243888 -21.511996 -6.675191 -15.424902 13.571150 14.179698 2.710574 12.125600 0.110680 0.406754 -1.404239 2.327057 -0.251920 4.791029 0.776061 -0.187565 -4.010421 -2.343941 -0.255141 -0.249391 -4.075086 -2.733893 -5.420675 -0.235934 -2.475874 32.000667 -10.653426 0.625964 10.712666 -10.840091 -8.056953 2.003953 -73.158586 -13.343865 50.431877 5.893499 -6.457062 -4.136731 2.727179 -2.830769 -3.425224 -0.733860 0.548882 -0.000000 0.000000 0.000000 0.000000 0.000000 0.000000 0.000000 12.554555 10.376248 4.365491 68.663221 15.231964 42.078310 -5.478704 5.088834 -6.607531 -3.917820 -0.032529 -6.023650 1.238150 0.315111 0.000000 0.000000 0.000000 0.000000 0.000000 0.000000 0.000000
17.375417 18.885493 34.046058 0.223579 1.400122 11.062226 -17.835471 3.349171 3.875452 2.869928 -1.989931 -20.533538 -1.082399 -16.058416 21.702239 -16.708589 23.665956 0.377008 -0.262953 -1.111600 -0.884548 14.628865 -2.626297 4.443812 -6.299529 5.180664 -21.587272 -6.750547 -15.676034 13.509130 14.038302 3.048532 12.286376 0.140151 0.506090 -1.258175 2.365601 -0.294552 4.807003 0.780881 -0.234205 -4.012049 -2.365989 -0.300244 -0.219847 -4.085659 -2.736806 -5.416494 -0.246861 -2.483730 31.871137 -10.653195 0.601933 10.625593 -10.881156 -8.184494 1.984985 -73.003914 -13.212387 50.542092 5.644738 -6.242816 -3.698805 2.629050 -2.757347 -3.042003 -0.709467 0.537738 -0.000000 0.000000 0.000000 0.000000 0.000000 0.000000 0.000000 12.581002 10.462745 4.426959 68.508728 15.233082 41.869280 -4.922886 5.016516 -5.061794 -1.998103 -0.008044 -4.539424 0.509994 0.343555 -0.000000 0.000000 0.000000 0.000000 0.000000 0.000000 0.000000
17.364584 18.882692 34.045274 0.210751 1.382465 11.052927 -17.851919 3.376720 3.914763 2.997523 -2.187216 -20.439778 -0.759128 -15.295856 21.201310 -16.609544 23.191343 0.853638 -0.265183 -1.083106 -0.923420 14.643273 -2.650706 4.424209 -6.246949 5.249369 -21.578363 -6.759086 -15.653848 13.553685 13.616321 3.063635 12.104911 0.152722 0.539014 -0.892954 2.405416 -0.329895 4.866654 0.781910 -0.271038 -4.009961 -2.446273 -0.334037 -0.178617 -4.165715 -2.886196 -5.416918 -0.639283 -2.323090 31.748238 -9.663491 0.411000 10.578624 -10.909040 -8.277803 2.068764 -72.817298 -13.234312 50.764249 5.312642 -5.871549 -3.288122 2.570074 -2.749583 -2.721694 -0.706383 0.564142 -0.000000 0.000000 0.000000 0.000000 0.000000 0.000000 0.000000 12.606209 10.662529 4.455395 68.259447 15.262820 41.137146 -4.727689 5.025416 -4.005573 -4.802072 -0.110985 -3.542083 1.596565 0.365274 -0.000000 0.000000 0.000000 0.000000 0.000000 0.000000 0.000000
17.354053 18.880649 34.042277 0.208836 1.377756 11.092242 -17.858383 3.386442 3.945624 3.105876 -2.352544 -20.311884 -0.486668 -14.791740 20.630577 -16.509666 22.925465 1.469951 -0.157824 -1.370962 0.081225 14.638646 -2.621644 4.425195 -6.241872 5.306354 -21.597700 -6.936382 -16.190251 13.413631 13.983606 3.639485 12.459398 0.131786 0.474512 -1.176085 2.416984 -0.361065 4.867019 0.784920 -0.303121 -4.011848 -2.456224 -0.365646 -0.158027 -4.172188 -2.887865 -5.404600 -0.608088 -2.257275 31.623415 -9.687745 0.499395 10.650086 -10.959486 -8.381619 2.092998 -72.721991 -13.064654 51.502808 5.295412 -5.556197 -3.280155 2.355308 -2.527601 -2.717318 -0.617365 0.504628 -0.000000 0.000000 0.000000 0.000000 0.000000 0.000000 0.000000 12.650521 10.737413 4.459376 68.211124 15.170903 41.071787 -4.115335 4.981288 -3.059962 -3.267726 0.164923 -2.683539 1.029976 0.272098 -0.000000 0.000000 0.000000 0.000000 0.000000 0.000000 0.000000
17.341916 18.880361 34.043027 0.204293 1.395904 11.093874 -17.859224 3.425188 3.990901 3.182452 -2.490578 -20.219747 -0.330124 -14.511839 20.276030 -16.563374 22.856228 1.600641 -0.154989 -1.462660 0.183417 14.665567 -2.638455 4.430167 -6.209046 5.325857 -21.612076 -6.946402 -16.077858 13.475644 14.002183 3.566522 12.333750 0.129953 0.468731 -1.198069 2.433526 -0.394326 4.859802 0.787693 -0.338610 -4.014354 -2.501014 -0.399165 -0.097499 -4.164598 -2.885618 -5.423805 -0.471860 -2.062228 31.452326 -9.442446 0.700292 10.763481 -11.006811 -8.518707 2.205091 -72.558759 -13.102075 51.813914 5.003160 -5.125506 -2.996084 2.332694 -2.508342 -2.517825 -0.625314 0.530857 -0.000000 0.000000 0.000000 0.000000 0.000000 0.000000 0.000000 12.643375 10.835751 4.488789 68.055366 15.231220 40.944884 -4.098500 4.890053 -2.222900 -5.320929 0.229255 -1.898349 1.816298 0.256328 -0.000000 0.000000 0.000000 0.000000 0.000000 0.000000 0.000000
17.330372 18.879651 34.041685 0.206550 1.347339 11.081006 -17.878127 3.459472 4.026864 3.247884 -2.536723 -20.181647 0.023989 -13.662790 19.742649 -16.362353 22.178954 2.254846 -0.281572 -1.038819 -1.074125 14.686119 -2.662775 4.422096 -6.170601 5.459274 -21.592181 -7.071043 -16.425381 13.362376 13.283293 3.908947 12.445939 0.145428 0.514100 -0.903400 2.423604 -0.413694 4.906535 0.789261 -0.357457 -4.013847 -2.495834 -0.419151 -0.040963 -4.174651 -2.907933 -5.446257 -0.495189 -2.007003 31.383591 -9.411262 0.731513 10.643882 -11.045875 -8.607353 2.231633 -72.453460 -13.020838 52.211902 4.881977 -4.862104 -2.820538 2.235477 -2.591730 -2.382742 -0.596630 0.585203 -0.000000 0.000000 0.000000 0.000000 0.000000 0.000000 0.000000 12.695821 10.926865 4.549583 67.952106 15.190684 40.573638 -3.393576 4.870641 -1.125527 -3.495982 0.263378 -0.865615 1.145436 0.250780 -0.000000 0.000000 0.000000 0.000000 0.000000 0.000000 0.000000
